<svg width="65" height="84" viewBox="0 0 65 84" fill="none" xmlns="http://www.w3.org/2000/svg">
<path d="M37.6558 39.1009L51.4867 37.9177L50.6955 49.4298L38.6686 50.2293L37.6558 39.1009Z" fill="white"/>
<path d="M51.2335 38.2055L50.4423 49.206L38.8585 49.9734L37.8773 39.3247L51.2335 38.2055ZM51.7399 37.6619L37.4026 38.909L38.447 50.4851L50.8854 49.6536L51.7399 37.6619Z" fill="#030047"/>
<path d="M42.9412 47.703C42.8146 47.703 42.7197 47.6071 42.7197 47.4791L42.3082 44.2174L40.8523 43.7377C40.7258 43.7057 40.6625 43.5458 40.6941 43.4499C40.7258 43.354 40.884 43.258 40.979 43.29L42.6881 43.8656L43.1311 47.4152C43.1944 47.5751 43.0995 47.703 42.9412 47.703C42.9729 47.703 42.9729 47.703 42.9412 47.703Z" fill="#030047"/>
<path d="M19.8054 34.1443L16.7354 46.9355L8.9812 51.7962L12.8741 37.5659L13.2223 37.4061L15.1845 36.4147L15.5327 36.2549L19.8054 34.1443Z" fill="#D5006C"/>
<path d="M36.2632 51.5723H12.969L12.3993 50.613L18.4444 46.9035L29.3952 40.1562L33.478 46.9035L36.2632 51.5723Z" fill="white"/>
<path d="M29.3003 40.4759L33.3199 47.1593L35.8518 51.3165H13.1273L12.7475 50.6769L18.2229 47.2873L29.3003 40.4759ZM29.4586 39.8044L17.9697 46.9035L12.0829 50.549L12.8425 51.8281H36.7064L33.763 46.9355L29.4586 39.8044Z" fill="#030047"/>
<path d="M19.6155 49.2699C19.5205 49.2699 19.4572 49.2379 19.4256 49.142C19.3623 49.0141 19.3939 48.8862 19.5205 48.8222L28.0659 43.5458C28.1925 43.4819 28.3191 43.5139 28.3824 43.6098C28.4457 43.7377 28.4141 43.8656 28.2875 43.9296L19.7421 49.206C19.6788 49.2379 19.6471 49.2699 19.6155 49.2699Z" fill="#030047"/>
<path d="M21.1346 51.8282C21.0397 51.8282 20.9764 51.7962 20.9447 51.7002C20.8814 51.5723 20.9131 51.4444 21.0397 51.3805L29.5851 46.1041C29.7117 46.0401 29.8383 46.0721 29.9016 46.168C29.9649 46.264 29.9333 46.4239 29.8067 46.4878L21.2612 51.7642C21.2296 51.7962 21.1979 51.8282 21.1346 51.8282Z" fill="#030047"/>
<path d="M36.8962 18.9227C38.9218 18.2832 44.8403 16.7163 49.8726 25.2224C54.9366 33.7286 51.74 41.0516 51.74 41.0516L36.5797 40.2841C36.5797 40.2841 36.105 31.65 34.744 26.1178C34.4592 24.9026 33.6679 19.946 36.8962 18.9227Z" fill="#030047"/>
<path d="M13.4438 37.0223C13.3172 34.9757 14.0768 31.618 16.7353 28.2923C18.4761 29.2197 20.1535 30.2749 21.5777 31.2023C20.5333 32.2896 19.9003 33.3448 19.6155 33.9844L13.4438 37.0223Z" fill="white"/>
<path d="M16.7986 28.5801C18.3811 29.4435 19.9003 30.3709 21.2296 31.2343C20.3118 32.2256 19.7421 33.185 19.4572 33.7925L13.6653 36.6706C13.6337 34.6879 14.4249 31.65 16.7986 28.5801ZM16.672 27.9725C13.8236 31.4901 12.969 35.1356 13.2539 37.4061L19.837 34.1443C20.1219 33.5047 20.7865 32.3216 21.9892 31.1703C20.2168 30.0191 18.4761 28.9319 16.672 27.9725Z" fill="#030047"/>
<path d="M18.3178 25.0945C17.0518 26.3416 15.1844 28.5162 14.3932 30.3389C16.2605 31.1064 19.9319 32.5774 21.7676 33.4088C22.4322 32.4814 25.3123 29.8912 26.7682 29.0278C31.4524 26.2457 37.2443 24.8387 37.2443 24.8387L37.9722 18.3471C31.5157 17.7715 23.7932 19.7222 18.3178 25.0945Z" fill="#030047"/>
<path d="M34.6807 25.1585C34.5541 25.1585 34.4592 25.0625 34.4592 24.9346L34.2376 23.0799C34.206 22.952 34.3009 22.8241 34.4592 22.8241C34.5858 22.8241 34.7124 22.888 34.7124 23.0479L34.9339 24.9026C34.9339 25.0306 34.839 25.1265 34.6807 25.1585Z" fill="white"/>
<path d="M16.0707 34.56C18.0963 33.3768 17.9697 36.4147 17.9697 36.4147C17.9697 36.4147 17.0835 38.3974 18.3495 38.6852C19.1407 38.877 21.008 34.8478 19.5838 32.6733" fill="white"/>
<path d="M18.4444 38.941C18.4127 38.941 18.3811 38.941 18.3178 38.941C17.9697 38.8451 17.7164 38.6532 17.5898 38.3654C17.2417 37.6619 17.6531 36.6066 17.7481 36.3827C17.7481 35.967 17.6848 34.9118 17.2101 34.624C16.9885 34.496 16.6404 34.528 16.1973 34.7838C16.0707 34.8478 15.9441 34.8158 15.8808 34.6879C15.8175 34.56 15.8491 34.4321 15.9757 34.3681C16.5771 34.0164 17.0518 33.9844 17.4633 34.2082C18.2862 34.7199 18.2545 36.2548 18.2545 36.4467V36.4787L18.2228 36.5107C18.0962 36.7985 17.8114 37.6619 18.033 38.1415C18.0963 38.3014 18.2545 38.3974 18.4444 38.4613C18.476 38.4613 18.7292 38.3654 19.0457 37.7898C19.7737 36.5746 20.3434 34.2402 19.4255 32.8332C19.3622 32.7373 19.3939 32.5774 19.4888 32.5134C19.5838 32.4494 19.742 32.4814 19.8053 32.5774C21.008 34.3681 20.0585 37.1822 19.2989 38.3014C18.9824 38.7491 18.6976 38.941 18.4444 38.941Z" fill="#030047"/>
<path d="M55.1898 46.9035L50.9171 49.6536L47.5622 51.7962H8.9812L16.6088 46.9035H18.4445L12.3994 50.613L12.9691 51.5723H36.2633L33.4781 46.9035H55.1898Z" fill="#030047"/>
<path d="M47.5306 51.7962H8.9812V83.4225H47.5306V51.7962Z" fill="#D5006C"/>
<path d="M55.1898 78.5299L47.5305 83.4225V51.7962L55.1898 46.9035V78.5299Z" fill="#D5006C"/>
<path d="M47.5305 81.9195C47.4039 81.9195 47.2773 81.8236 47.2773 81.6637V54.0027C47.2773 53.8748 47.3723 53.7469 47.5305 53.7469C47.6888 53.7469 47.7837 53.8428 47.7837 54.0027V81.6637C47.7837 81.7916 47.6888 81.9195 47.5305 81.9195Z" fill="white"/>
<path d="M20.7549 51.7962V51.8602C20.7549 60.1425 15.5327 64.1078 8.9812 64.3316V51.8282H20.7549V51.7962Z" fill="#030047"/>
<path d="M17.5265 62.6687L14.8363 64.8432L18.1595 66.3462L17.5265 62.6687Z" fill="#030047"/>
<path d="M42.973 58.7674H24.0781V60.6861H42.973V58.7674Z" fill="white"/>
<path d="M35.4086 64.2996H32.117C31.7372 64.2996 31.4524 63.9798 31.4524 63.6281C31.4524 63.2443 31.7689 62.9565 32.117 62.9565H35.4086C35.7884 62.9565 36.0732 63.2763 36.0732 63.6281C36.1049 64.0118 35.7884 64.2996 35.4086 64.2996Z" fill="#030047"/>
<path d="M39.0168 64.2996H37.909C37.5292 64.2996 37.2444 63.9798 37.2444 63.6281C37.2444 63.2443 37.5609 62.9565 37.909 62.9565H39.0168C39.3966 62.9565 39.6814 63.2763 39.6814 63.6281C39.7131 64.0118 39.3966 64.2996 39.0168 64.2996Z" fill="#030047"/>
<path d="M42.2767 64.2996H41.1373C40.7575 64.2996 40.4727 63.9798 40.4727 63.6281C40.4727 63.2443 40.7891 62.9565 41.1373 62.9565H42.245C42.6248 62.9565 42.9097 63.2763 42.9097 63.6281C42.9413 64.0118 42.6565 64.2996 42.2767 64.2996Z" fill="#030047"/>
<path d="M31.2309 71.4947H9.23438V83.1667H31.2309V71.4947Z" fill="white"/>
<path d="M30.9778 71.7505V82.9428H9.45595V71.7505H30.9778ZM31.4525 71.2708H8.9812V83.4225H31.4525V71.2708Z" fill="#030047"/>
<path d="M24.4895 83.1347C24.4262 83.1347 24.3945 83.1347 24.3629 83.1027L9.32927 72.0063C9.23432 71.9424 9.20266 71.7825 9.26596 71.6865C9.32926 71.5906 9.48751 71.5586 9.58246 71.6226L24.6161 82.719C24.711 82.7829 24.7427 82.9428 24.6794 83.0387C24.6477 83.1027 24.5528 83.1347 24.4895 83.1347Z" fill="#030047"/>
<path d="M15.9125 83.1347C15.8492 83.1347 15.7543 83.1027 15.7226 83.0388C15.6593 82.9428 15.6593 82.783 15.7859 82.719L30.6929 71.6226C30.7879 71.5586 30.9461 71.5587 31.0094 71.6866C31.0727 71.7825 31.0727 71.9424 30.9461 72.0063L16.0391 83.1027C16.0075 83.1347 15.9758 83.1347 15.9125 83.1347Z" fill="#030047"/>
<path d="M58.1015 56.433H56.8672V70.0237H58.1015V56.433Z" fill="#030047"/>
<path d="M29.2052 38.2694C29.1736 38.2694 29.1735 38.2694 29.1419 38.2694C29.0153 38.2375 28.952 38.1095 28.9837 37.9816L29.3951 36.3827C29.4268 36.2548 29.5533 36.1909 29.6799 36.2228C29.8065 36.2548 29.8698 36.3827 29.8382 36.5107L29.4268 38.1096C29.4268 38.2055 29.3318 38.2694 29.2052 38.2694Z" fill="#D5006C"/>
<path d="M6.54413 43.9296L3.72729 45.7523L6.73402 47.0954L6.54413 43.9296Z" fill="#030047"/>
<path d="M25.2271 40.0424L23.3696 38.1656L21.5121 40.0424L23.3696 41.9192L25.2271 40.0424Z" fill="#030047"/>
<path d="M30.8194 50.1333C30.7561 50.1333 30.7244 50.1013 30.6611 50.0693L29.6483 49.1739C29.5534 49.078 29.5217 48.9501 29.6167 48.8222C29.7116 48.7263 29.8382 48.6943 29.9648 48.7902L30.9776 49.6856C31.0726 49.7815 31.1042 49.9094 31.0092 50.0374C30.9459 50.1013 30.8827 50.1333 30.8194 50.1333Z" fill="#D5006C"/>
<path d="M27.0848 38.4933C27.0215 38.4933 26.9266 38.4613 26.8949 38.3654L25.2175 35.6792C25.1542 35.5513 25.1859 35.4234 25.2808 35.3595C25.4074 35.2955 25.534 35.3275 25.5973 35.4234L27.2747 38.1096C27.338 38.2375 27.3064 38.3654 27.2114 38.4293C27.1798 38.4933 27.1481 38.4933 27.0848 38.4933Z" fill="#D5006C"/>
<path d="M38.4786 36.3827C38.4153 36.3827 38.352 36.3508 38.3204 36.3188C38.2254 36.2229 38.2254 36.063 38.3204 35.967L40.3143 33.9524C40.4093 33.8565 40.5675 33.8565 40.6624 33.9524C40.7574 34.0483 40.7574 34.2082 40.6624 34.3042L38.6685 36.3188C38.5736 36.3828 38.5103 36.3827 38.4786 36.3827Z" fill="#E7EBF3"/>
<path d="M34.6808 42.1068C34.5542 42.1068 34.4592 42.0109 34.4592 41.883L34.3326 40.6678C34.3326 40.5399 34.4276 40.412 34.5542 40.412C34.6808 40.412 34.8074 40.5079 34.8074 40.6358L34.934 41.851C34.934 41.9789 34.839 42.0748 34.6808 42.1068Z" fill="#D5006C"/>
<path d="M41.7069 38.909L43.2894 37.6619L43.6059 39.8044L41.7069 38.909Z" fill="#E7EBF3"/>
<path d="M29.7117 31.4581L31.4524 30.4348L31.5157 32.7372L29.7117 31.4581Z" fill="#D5006C"/>
<path d="M19.8053 44.1534C19.7737 44.1534 19.7737 44.1534 19.7421 44.1534C19.6155 44.1214 19.5205 43.9935 19.5522 43.8656L19.9636 42.0748C19.9952 41.9469 20.1219 41.851 20.2485 41.883C20.3751 41.9149 20.47 42.0429 20.4383 42.1708L20.0269 43.9615C19.9953 44.0895 19.9003 44.1534 19.8053 44.1534Z" fill="#D5006C"/>
<path d="M36.4214 51.5723C38.7318 50.1333 41.8652 49.3978 45.7264 49.3978C46.8658 49.3978 48.0685 49.4618 49.3345 49.5897C49.7143 49.6217 50.0308 49.6856 50.3156 49.7496L47.4672 51.5723H36.4214Z" fill="white"/>
<path d="M45.7265 49.142V49.6217C46.8659 49.6217 48.0686 49.6856 49.3029 49.8135C49.4295 49.8135 49.5561 49.8455 49.6827 49.8455L47.4356 51.2845H37.3393C39.5232 50.1653 42.34 49.5897 45.7265 49.5897V49.142ZM45.7265 49.142C41.8653 49.142 38.2888 49.8455 35.6302 51.7962H47.5622L50.9171 49.6536C50.5373 49.5257 50.0309 49.4298 49.3662 49.3339C48.1319 49.2379 46.9292 49.142 45.7265 49.142Z" fill="#030047"/>
<path d="M10.9118 41.2434H10.8801L7.05052 40.5399C6.92392 40.5079 6.82898 40.38 6.86063 40.2521C6.89228 40.1242 7.01886 40.0282 7.14546 40.0602L10.9751 40.7637C11.1017 40.7957 11.1966 40.9236 11.165 41.0515C11.1017 41.1475 11.0067 41.2434 10.9118 41.2434Z" fill="#030047"/>
<path d="M8.63296 42.8103H8.60132C8.47472 42.7784 8.37976 42.6504 8.41141 42.5225L9.10771 38.6532C9.13935 38.5253 9.26596 38.4293 9.39256 38.4613C9.51916 38.4933 9.6141 38.6212 9.58245 38.7491L8.88615 42.6185C8.8545 42.7144 8.75956 42.8103 8.63296 42.8103Z" fill="#030047"/>
<path d="M34.6807 49.142C36.1665 49.142 37.3709 47.9251 37.3709 46.4239C37.3709 44.9227 36.1665 43.7057 34.6807 43.7057C33.1949 43.7057 31.9905 44.9227 31.9905 46.4239C31.9905 47.9251 33.1949 49.142 34.6807 49.142Z" fill="#E7EBF3"/>
<path d="M13.6021 41.5632L17.2102 44.6651L13.1907 46.5198L13.6021 41.5632Z" fill="white"/>
<path d="M13.792 42.0429L16.767 44.6011L13.4438 46.1361L13.792 42.0429ZM13.4122 41.0835L12.9058 46.9035L17.6532 44.729L13.4122 41.0835Z" fill="#030047"/>
<path d="M58.1015 34.528L50.4739 39.4526L47.5305 51.8601L55.1898 46.9355L58.1015 34.528Z" fill="#D5006C"/>
<path d="M48.4168 51.4764C48.3535 51.4764 48.2586 51.4444 48.2269 51.3805C48.1636 51.2845 48.1952 51.1246 48.2902 51.0607L54.1771 47.2873C54.272 47.2233 54.4303 47.2553 54.4936 47.3512C54.5569 47.4472 54.5252 47.6071 54.4302 47.671L48.5434 51.4444C48.4801 51.4764 48.4484 51.4764 48.4168 51.4764Z" fill="white"/>
<path d="M40.9156 18.1872C50.0308 17.8035 58.5129 20.4257 61.4563 24.1351C64.6846 28.1963 63.0388 36.1909 59.0826 38.2694C58.1015 38.7811 56.9937 38.909 56.3924 39.1968C54.5567 40.0602 54.1453 39.9643 53.5439 39.4846C53.5439 39.4846 52.0247 40.4439 51.5816 39.2608C51.5816 39.2608 51.0119 40.7637 49.9358 40.38C48.8597 39.9962 50.1574 37.0223 53.0375 35.4873C55.9493 33.9524 57.4052 30.115 55.791 27.8126C54.1769 25.5102 44.1756 22.6961 44.1756 22.6961L40.9156 18.1872Z" fill="white"/>
<path d="M50.3157 40.6998C50.1891 40.6998 50.0625 40.6678 49.9043 40.6359C49.5878 40.5399 49.3979 40.2521 49.3662 39.8684C49.2713 38.6532 50.7272 36.4787 52.9743 35.2955C54.5251 34.4641 55.7278 32.8972 56.1393 31.2023C56.4241 29.9872 56.2342 28.8359 55.6329 27.9725C54.0504 25.7661 44.2706 22.984 44.144 22.952L44.0807 22.92L40.4727 17.9634L40.9157 17.9314C49.8726 17.5477 58.5763 20.1059 61.678 23.9753C63.2605 25.9899 63.8302 29.0918 63.1655 32.2896C62.5642 35.1676 61.1083 37.47 59.241 38.4613C58.6396 38.7811 58.0066 38.941 57.4686 39.1009C57.0888 39.1968 56.7723 39.2928 56.5507 39.3887C54.81 40.2201 54.2403 40.2201 53.5756 39.7405C53.2908 39.9004 52.6261 40.1882 52.0881 39.9963C51.9298 39.9323 51.7716 39.8364 51.6767 39.7085C51.3602 40.2201 50.9171 40.6998 50.3157 40.6998ZM44.3656 22.5043C45.3784 22.7921 54.4302 25.4463 56.0127 27.6847C56.709 28.6441 56.8989 29.9232 56.5824 31.2983C56.1709 33.121 54.8416 34.8158 53.1642 35.7112C50.9804 36.8624 49.746 38.8771 49.8093 39.8364C49.841 40.1242 49.9676 40.1562 50.0309 40.1882C50.8538 40.476 51.3602 39.2288 51.3602 39.1969L51.5817 38.6212L51.8033 39.1969C51.8666 39.4207 51.9932 39.5486 52.1831 39.5806C52.5945 39.7085 53.2275 39.4207 53.4174 39.2928L53.5756 39.1969L53.7022 39.2928C54.177 39.6765 54.4935 39.8364 56.2975 38.973C56.5824 38.8451 56.8989 38.7492 57.2787 38.6532C57.8167 38.4933 58.418 38.3334 58.9561 38.0456C60.6968 37.1183 62.0894 34.9438 62.6591 32.2256C63.2921 29.1557 62.7857 26.2137 61.2665 24.2951C58.3231 20.5856 49.9992 18.1553 41.3588 18.4111L44.3656 22.5043Z" fill="#030047"/>
<path d="M55.8545 27.8446C56.7407 29.0598 56.7091 30.7546 56.0761 32.2576C58.1333 33.0251 61.235 33.7606 63.2289 34.6879C64.7797 31.3942 64.8114 26.5655 62.3743 23.9753C57.6269 19.0187 50.0943 17.8035 40.9791 18.1872L45.2835 25.7021C45.2518 25.7021 54.2087 25.5422 55.8545 27.8446Z" fill="#030047"/>
<path d="M53.4807 36.6066C52.6579 37.1822 51.9932 37.9177 51.5501 38.8131C51.4552 39.005 51.74 39.1649 51.835 38.973C52.278 38.1096 52.8794 37.4061 53.6706 36.8944C53.7972 36.7665 53.639 36.4787 53.4807 36.6066Z" fill="#030047"/>
<path d="M55.253 37.1502C54.5884 37.6299 54.082 38.2375 53.7022 38.973C53.6073 39.1649 53.8921 39.3248 53.9871 39.1329C54.3352 38.4613 54.8099 37.8857 55.4113 37.438C55.5695 37.3101 55.4113 37.0223 55.253 37.1502Z" fill="#030047"/>
<path d="M49.6828 26.1817C49.6511 26.1817 49.6511 26.1817 49.6195 26.1817L48.3218 25.766C48.1952 25.7341 48.1319 25.6061 48.1636 25.4782C48.1952 25.3503 48.3218 25.2864 48.4484 25.3183L49.7461 25.734C49.8727 25.766 49.936 25.8939 49.9043 26.0219C49.8727 26.1178 49.7777 26.1817 49.6828 26.1817Z" fill="#030047"/>
<path d="M5.68951 66.5701C5.62621 66.5701 5.56291 66.5381 5.53126 66.5061L0.498946 61.4216C0.403997 61.3257 0.403997 61.1658 0.498946 61.0698C0.593896 60.9739 0.752156 60.9739 0.847105 61.0698L5.8794 66.1544C5.97435 66.2503 5.97435 66.4102 5.8794 66.5061C5.8161 66.5381 5.75281 66.5701 5.68951 66.5701Z" fill="#030047"/>
<path d="M0.657195 66.5701C0.593896 66.5701 0.530596 66.5381 0.498946 66.5061C0.403997 66.4102 0.403997 66.2503 0.498946 66.1544L5.53126 61.0698C5.62621 60.9739 5.78445 60.9739 5.8794 61.0698C5.97435 61.1658 5.97435 61.3257 5.8794 61.4216L0.847105 66.5061C0.783806 66.5381 0.720495 66.5701 0.657195 66.5701Z" fill="#030047"/>
<path d="M5.68956 70.9191H0.657247C0.530648 70.9191 0.404053 70.8231 0.404053 70.6632C0.404053 70.5033 0.498998 70.4074 0.657247 70.4074H5.68956C5.81616 70.4074 5.94276 70.5033 5.94276 70.6632C5.94276 70.8231 5.81616 70.9191 5.68956 70.9191Z" fill="#030047"/>
<path d="M42.1184 13.9342C42.0235 13.7103 41.8969 13.4865 41.7386 13.2626C41.7386 13.2626 41.7386 13.2626 41.7386 13.2306C40.2827 11.1201 37.6241 10.4805 35.7568 11.7916C34.8706 12.4312 34.3642 13.4225 34.2376 14.5098C34.0794 15.693 34.5225 16.9081 34.9972 17.9634C36.0733 20.3937 38.5103 21.481 40.979 19.4024C41.5171 18.9547 41.9285 18.3791 42.2134 17.7076C43.1629 17.5157 43.7325 16.8122 43.8275 15.9488C43.9224 14.9575 43.1945 13.8382 42.1184 13.9342Z" fill="white"/>
<path d="M38.3204 20.7455C38.0672 20.7455 37.814 20.7135 37.5608 20.6495C36.3898 20.3617 35.3453 19.4344 34.744 18.0593C34.3009 17.068 33.7945 15.7569 33.9844 14.4778C34.1426 13.2306 34.7123 12.2073 35.5985 11.5997C36.4847 10.9922 37.5924 10.7363 38.7002 10.9602C39.9662 11.184 41.1372 11.9835 41.9285 13.1027C42.0551 13.2946 42.1817 13.4865 42.2766 13.7103C42.7197 13.7103 43.1312 13.9022 43.4793 14.2539C43.9224 14.7016 44.1439 15.3732 44.049 16.0127C43.9224 17.004 43.2894 17.7395 42.3716 17.9634C42.0867 18.6029 41.6436 19.1786 41.1056 19.6262C40.1877 20.3617 39.2382 20.7455 38.3204 20.7455ZM37.9089 11.3439C37.181 11.3439 36.4531 11.5678 35.8517 11.9835C35.0605 12.5271 34.5857 13.4225 34.4275 14.5417C34.2692 15.6929 34.7123 16.8761 35.1554 17.8675C35.6935 19.0826 36.6113 19.946 37.6557 20.2018C38.6685 20.4257 39.7446 20.1059 40.7891 19.2425C41.2955 18.8268 41.7069 18.2832 41.9601 17.6436L42.0234 17.5157L42.15 17.4837C42.9413 17.3238 43.4793 16.7482 43.5743 15.9168C43.6376 15.4371 43.4476 14.8935 43.1311 14.5417C42.9413 14.3499 42.6248 14.126 42.15 14.158H41.9918L41.9285 13.9981C41.8019 13.7423 41.7069 13.5504 41.5803 13.3585C40.8524 12.3033 39.8079 11.5998 38.6369 11.3759C38.3837 11.3759 38.1305 11.3439 37.9089 11.3439Z" fill="#030047"/>
<path d="M37.9155 16.2757C38.0096 16.1269 37.9665 15.9292 37.8192 15.8341C37.6719 15.739 37.4762 15.7825 37.3821 15.9313C37.288 16.0801 37.3311 16.2779 37.4784 16.373C37.6256 16.4681 37.8213 16.4245 37.9155 16.2757Z" fill="#030047"/>
<path d="M36.5164 18.539C36.1999 17.8994 35.9783 17.2279 35.8201 16.5244C35.7884 16.3325 36.1049 16.2686 36.1366 16.4604C36.2632 17.132 36.4847 17.7715 36.8012 18.4111C36.8962 18.571 36.6113 18.7309 36.5164 18.539Z" fill="#030047"/>
<path d="M41.169 16.2366C41.2323 15.5011 41.802 14.8615 42.5616 14.7656C42.7515 14.7336 42.8464 15.0534 42.6249 15.0854C42.0235 15.1493 41.5488 15.629 41.4855 16.2366C41.4538 16.4604 41.1373 16.4604 41.169 16.2366Z" fill="#030047"/>
<path d="M40.8524 14.7976C40.6309 15.597 39.6181 14.5098 37.6874 14.126C36.8329 13.9661 33.1932 15.2453 32.6235 13.9981C31.7689 12.1754 34.1743 11.1201 35.7252 11.7916C35.5669 11.1201 36.3265 10.1288 37.3393 10.6404C40.0612 9.26535 42.5299 11.0561 42.2134 14.126C42.2134 14.126 41.1056 14.5417 40.8524 14.7976Z" fill="#030047"/>
<path d="M49.6596 3.19568C49.7939 3.08261 49.9935 3.10095 50.1054 3.23662C50.2173 3.3723 50.1992 3.57394 50.0649 3.687L44.4315 8.4302C44.2972 8.54327 44.0976 8.52493 43.9857 8.38926C43.8738 8.25358 43.892 8.05194 44.0262 7.93888L49.6596 3.19568Z" fill="#D5006C"/>
<path d="M42.8469 2.04948C42.9163 1.88738 43.1026 1.81282 43.263 1.88293C43.4234 1.95304 43.4972 2.14128 43.4278 2.30338L41.9817 5.68151C41.9123 5.84361 41.726 5.91818 41.5656 5.84807C41.4051 5.77796 41.3313 5.58971 41.4007 5.42762L42.8469 2.04948Z" fill="#D5006C"/>
<path d="M49.7958 9.83769C49.9667 9.80056 50.135 9.91044 50.1718 10.0831C50.2085 10.2558 50.0998 10.4258 49.9289 10.463L46.3675 11.2366C46.1966 11.2737 46.0283 11.1638 45.9915 10.9912C45.9548 10.8185 46.0635 10.6484 46.2344 10.6113L49.7958 9.83769Z" fill="#D5006C"/>
</svg>
