<svg width="125" height="80" viewBox="0 0 125 80" fill="none" xmlns="http://www.w3.org/2000/svg">
<g id="ApplePay">
<path id="ApplePay_2" fill-rule="evenodd" clip-rule="evenodd" d="M40.925 28.8678C40.128 29.8811 38.8529 30.6803 37.5777 30.5661C37.4183 29.196 38.0426 27.7403 38.7732 26.8411C39.5701 25.7992 40.9648 25.0571 42.0939 25C42.2267 26.4272 41.7087 27.8259 40.925 28.8678ZM42.0805 30.8372C40.9571 30.7678 39.932 31.2002 39.1041 31.5496C38.5713 31.7744 38.1201 31.9647 37.7768 31.9647C37.3916 31.9647 36.9218 31.7642 36.3943 31.539C35.7031 31.244 34.9129 30.9067 34.0842 30.9229C32.1848 30.9514 30.4182 32.1075 29.4486 33.9486C27.4562 37.6308 28.9305 43.0827 30.8565 46.0799C31.7996 47.5642 32.9286 49.1912 34.4163 49.1341C35.0708 49.1076 35.5416 48.8929 36.0288 48.6708C36.5898 48.415 37.1725 48.1493 38.0823 48.1493C38.9607 48.1493 39.5179 48.4081 40.0528 48.6565C40.5614 48.8927 41.0499 49.1195 41.775 49.1056C43.3157 49.077 44.2854 47.6213 45.2285 46.137C46.2462 44.5439 46.6934 42.9891 46.7613 42.7532L46.7693 42.7259C46.7676 42.7242 46.7551 42.718 46.7329 42.7071C46.3927 42.5397 43.7923 41.2606 43.7674 37.8306C43.7423 34.9516 45.8299 33.4929 46.1585 33.2633C46.1785 33.2493 46.192 33.2399 46.1981 33.2349C44.8698 31.1227 42.7977 30.8943 42.0805 30.8372ZM52.7466 48.9486V26.6983H60.517C64.5284 26.6983 67.3311 29.6669 67.3311 34.0057C67.3311 38.3444 64.4753 41.3415 60.4108 41.3415H55.961V48.9486H52.7466ZM55.9607 29.61H59.6666C62.456 29.61 64.0499 31.2085 64.0499 34.0201C64.0499 36.8317 62.456 38.4445 59.6533 38.4445H55.9607V29.61ZM77.9441 46.2796C77.094 48.0208 75.2212 49.1198 73.2022 49.1198C70.2136 49.1198 68.1282 47.2073 68.1282 44.3244C68.1282 41.4699 70.1471 39.8286 73.8796 39.586L77.891 39.3291V38.1017C77.891 36.2892 76.7885 35.3044 74.8227 35.3044C73.2022 35.3044 72.02 36.2035 71.7809 37.5736H68.8853C68.9783 34.6907 71.502 32.5927 74.9157 32.5927C78.595 32.5927 80.9859 34.6621 80.9859 37.8734V48.9485H78.0105V46.2796H77.9441ZM74.0654 46.4796C72.3519 46.4796 71.2627 45.5947 71.2627 44.2389C71.2627 42.8402 72.3121 42.0267 74.3178 41.8983L77.8908 41.6556V42.9116C77.8908 44.9953 76.2438 46.4796 74.0654 46.4796ZM90.8548 49.8192C89.5664 53.7155 88.092 55 84.9573 55C84.7182 55 83.9212 54.9715 83.7353 54.9144V52.2455C83.9345 52.274 84.426 52.3026 84.6783 52.3026C86.0996 52.3026 86.8966 51.6603 87.388 49.9905L87.6802 49.0057L82.2343 32.8068H85.5949L89.3804 45.9515H89.4469L93.2324 32.8068H96.5L90.8548 49.8192Z" fill="black"/>
</g>
</svg>
