<svg width="14" height="17" viewBox="0 0 14 17" fill="none" xmlns="http://www.w3.org/2000/svg">
<g id="bolsa">
<path id="Rectangle 13 (Stroke)" fill-rule="evenodd" clip-rule="evenodd" d="M1.35272 6.17762C1.40799 5.21963 2.20097 4.47107 3.16057 4.47107H11.2014C12.161 4.47107 12.9539 5.21962 13.0092 6.17762L13.5135 14.918C13.5734 15.9574 12.7467 16.8332 11.7056 16.8332H2.65631C1.61521 16.8332 0.788502 15.9574 0.848466 14.918L1.35272 6.17762ZM3.6392 6.78896L3.19345 14.5153H11.1685L10.7227 6.78896H3.6392Z" fill="#3B3CF7"/>
<path id="Vector 3 (Stroke)" fill-rule="evenodd" clip-rule="evenodd" d="M6.22813 2.82483C6.06819 3.01136 6.02205 3.2341 6.02205 3.31218V6.40263C6.02205 7.04269 5.50318 7.56157 4.86311 7.56157C4.22304 7.56157 3.70416 7.04269 3.70416 6.40263V3.31218C3.70416 2.72802 3.91865 1.95737 4.46849 1.31609C5.05599 0.630889 5.96398 0.166473 7.181 0.166473C8.39802 0.166473 9.30601 0.630889 9.89351 1.31609C10.4434 1.95737 10.6578 2.72802 10.6578 3.31218H9.49889H8.33995C8.33995 3.2341 8.29381 3.01136 8.13387 2.82483C8.01159 2.6822 7.76064 2.48437 7.181 2.48437C6.60137 2.48437 6.35042 2.6822 6.22813 2.82483ZM9.49889 3.31218H8.33995V6.40263C8.33995 7.04269 8.85882 7.56157 9.49889 7.56157C10.139 7.56157 10.6578 7.04269 10.6578 6.40263V3.31218H9.49889Z" fill="#3B3CF7"/>
</g>
</svg>
