<svg width="40" height="41" viewBox="0 0 40 41" fill="none" xmlns="http://www.w3.org/2000/svg">
<g id=" credit-card">
<path id="Icon" fill-rule="evenodd" clip-rule="evenodd" d="M18.3333 25.5H11.6666C10.75 25.5 9.99998 24.75 9.99998 23.8333C9.99998 22.9167 10.75 22.1667 11.6666 22.1667H18.3333C19.25 22.1667 20 22.9167 20 23.8333C20 24.75 19.25 25.5 18.3333 25.5ZM28.3333 25.5H25C24.0833 25.5 23.3333 24.75 23.3333 23.8333C23.3333 22.9167 24.0833 22.1667 25 22.1667H28.3333C29.25 22.1667 30 22.9167 30 23.8333C30 24.75 29.25 25.5 28.3333 25.5ZM33.3333 27.1667C33.3333 28.085 32.5866 28.8333 31.6666 28.8333H8.33331C7.41331 28.8333 6.66665 28.085 6.66665 27.1667V18.8333H33.3333V27.1667ZM6.66665 13.8333C6.66665 12.915 7.41331 12.1667 8.33331 12.1667H31.6666C32.5866 12.1667 33.3333 12.915 33.3333 13.8333V15.5H6.66665V13.8333ZM31.6666 8.83333H8.33331C5.57665 8.83333 3.33331 11.0767 3.33331 13.8333V27.1667C3.33331 29.9233 5.57665 32.1667 8.33331 32.1667H31.6666C34.4233 32.1667 36.6666 29.9233 36.6666 27.1667V13.8333C36.6666 11.0767 34.4233 8.83333 31.6666 8.83333Z" fill="#3B3CF7"/>
</g>
</svg>
