<svg width="164" height="58" viewBox="0 0 164 58" fill="none" xmlns="http://www.w3.org/2000/svg">
<g id="Garmin">
<path id="Vector" d="M48.4363 20.2383C48.1983 19.7447 47.5796 19.3498 47.0561 19.3498H45.9853C45.4618 19.3498 44.8431 19.757 44.6171 20.2383L36.1339 38.6008C35.896 39.0821 36.1577 39.44 36.6812 39.44H38.6444C39.4177 39.44 39.7747 39.0698 39.9769 38.6255C40.1911 38.1813 40.6551 37.2064 40.7384 37.0089C40.8574 36.7374 41.2262 36.577 41.7616 36.577H50.8872C51.4107 36.577 51.7558 36.6757 51.9104 37.0089C52.0175 37.2187 52.4815 38.0949 52.7076 38.5638C52.9336 39.0451 53.3263 39.4277 54.0758 39.4277H56.9194C57.4429 39.4277 57.6809 39.0081 57.4905 38.6255C57.3001 38.2553 48.4363 20.2383 48.4363 20.2383ZM43.0822 33.7387C42.5587 33.7387 42.3089 33.3315 42.535 32.8379L45.8782 25.4213C46.1043 24.9277 46.4612 24.9277 46.6754 25.4213L49.9235 32.8379C50.1376 33.3315 49.8878 33.7387 49.3643 33.7387H43.0822ZM113.934 20.374V38.5885C113.934 39.0945 114.362 39.4277 114.886 39.4277H117.206C117.729 39.4277 118.157 39.0821 118.157 38.5391V20.337C118.157 19.794 117.812 19.3498 117.289 19.3498H114.886C114.362 19.3498 113.934 19.683 113.934 20.374ZM75.1231 31.7889C74.8256 31.3447 74.9922 30.8511 75.4919 30.6906C75.4919 30.6906 77.4907 30.0736 78.4544 29.1728C79.4182 28.2843 79.8941 26.9885 79.8941 25.3102C79.8941 24.2119 79.7037 23.2864 79.3349 22.5336C78.966 21.7808 78.4425 21.1762 77.7525 20.6949C77.0624 20.226 76.2414 19.8804 75.2777 19.6583C74.314 19.4485 73.0171 19.3745 73.0171 19.3745C72.4936 19.3498 71.637 19.3251 71.1135 19.3251H61.4882C60.9647 19.3251 60.5363 19.7694 60.5363 20.3123V38.5145C60.5363 39.0574 60.9647 39.403 61.4882 39.403H63.7606C64.2841 39.403 64.7125 39.0574 64.7125 38.5145V31.2706C64.7125 31.2706 64.7244 31.2706 64.7244 31.2583L69.0433 31.246C69.5668 31.246 70.245 31.6162 70.5543 32.0604L75.0398 38.6008C75.4562 39.1809 75.8488 39.403 76.3723 39.403H79.3468C79.8703 39.403 79.9536 38.8847 79.7751 38.6255C79.5847 38.3911 75.1231 31.7889 75.1231 31.7889ZM73.3027 28.0868C72.7078 28.2226 72.0534 28.2596 72.0534 28.2596C71.5299 28.2843 70.6733 28.2966 70.1498 28.2966H65.6881C65.1646 28.2966 64.7363 27.8523 64.7363 27.3094V23.6196C64.7363 23.0766 65.1646 22.6323 65.6881 22.6323H70.1498C70.6733 22.6323 71.5299 22.657 72.0534 22.6694C72.0534 22.6694 72.7197 22.694 73.3027 22.8421C73.8976 22.9779 74.3616 23.1753 74.7066 23.4345C75.0517 23.6936 75.3015 23.9898 75.4443 24.3353C75.5871 24.6808 75.6704 25.0511 75.6704 25.4706C75.6704 25.8779 75.599 26.2604 75.4443 26.606C75.3015 26.9515 75.0517 27.2477 74.7066 27.5068C74.3616 27.7536 73.8976 27.9511 73.3027 28.0868ZM142.381 19.3498C141.858 19.3498 141.43 19.7077 141.43 20.2383V31.8877C141.43 32.4306 141.132 32.554 140.763 32.1715L129.52 20.0779C129.151 19.683 128.616 19.3621 127.902 19.3621H125.784C125.118 19.3621 124.832 19.7323 124.832 20.1026V38.7243C124.832 39.0945 125.177 39.4523 125.701 39.4523H127.818C128.342 39.4523 128.711 39.1562 128.711 38.6502L128.723 26.3838C128.723 25.8408 129.02 25.7174 129.389 26.1123L141.12 38.7489C141.489 39.1315 141.941 39.4523 142.75 39.4523H144.345C144.868 39.4523 145.296 39.0081 145.296 38.4651V20.337C145.296 19.794 144.868 19.3498 144.345 19.3498H142.381ZM96.5272 30.703C96.2774 31.1843 95.849 31.1719 95.5992 30.703L90.1024 20.2383C89.8644 19.757 89.3885 19.3498 88.7223 19.3498H85.7359C85.2124 19.3498 84.7841 19.794 84.7841 20.337V38.5268C84.7841 39.0698 85.1291 39.44 85.7359 39.44H87.592C88.1155 39.44 88.4962 39.0945 88.4962 38.5762C88.4962 38.3294 88.5081 25.3472 88.52 25.3472C88.5438 25.3472 95.385 38.5638 95.385 38.5638C95.6349 39.0451 96.2417 39.0451 96.4915 38.5638C96.4915 38.5638 103.392 25.3719 103.404 25.3719C103.428 25.3719 103.416 38.1813 103.416 38.5638C103.416 39.0945 103.821 39.4277 104.344 39.4277H106.474C106.997 39.4277 107.426 39.1562 107.426 38.4404V20.337C107.426 19.794 106.997 19.3498 106.474 19.3498H103.618C102.893 19.3498 102.452 19.7323 102.191 20.2136L96.5272 30.703ZM11.7672 29.3702C11.7672 39.1808 21.4401 39.6745 23.3795 39.6745C29.8043 39.6745 32.517 37.8728 32.6241 37.7987C33.0286 37.5643 33.5164 37.083 33.5164 36.1945V29.4196C33.5164 28.7902 33.0286 28.2843 32.4218 28.2843H24.3551C23.7483 28.2843 23.3557 28.7902 23.3557 29.4196V30.123C23.3557 30.7523 23.7483 31.2583 24.3551 31.2583H29.019C29.4712 31.2583 29.84 31.6409 29.84 32.1098V35.2689C28.9239 35.6638 24.7239 36.9349 21.3449 36.0957C16.4549 34.8864 16.0742 30.6906 16.0742 29.4443C16.0742 28.3953 16.3836 23.1136 22.392 22.583C27.2582 22.1511 30.4587 24.1872 30.4944 24.2119C31.0655 24.5204 31.6603 24.2983 31.9816 23.6689L32.5884 22.3979C32.8382 21.8796 32.7549 21.3366 32.1363 20.9047C32.1006 20.88 28.6859 18.9672 23.3914 18.9672C12.0885 18.9549 11.7672 28.3089 11.7672 29.3702ZM141.311 14.3272H128.639C128.175 14.3272 127.771 14.0928 127.545 13.6732C127.319 13.2536 127.319 12.7847 127.545 12.3651L133.886 0.987233C134.112 0.567659 134.517 0.333191 134.981 0.333191C135.445 0.333191 135.849 0.567659 136.076 0.987233L142.417 12.3651C142.655 12.7847 142.655 13.2536 142.417 13.6732C142.167 14.0928 141.775 14.3272 141.311 14.3272ZM150.02 35.2566C151.233 35.2566 152.233 36.2808 152.233 37.5519C152.233 38.8106 151.245 39.8472 150.02 39.8472C148.806 39.8472 147.807 38.823 147.807 37.5519C147.807 36.2932 148.806 35.2566 150.02 35.2566ZM150.032 39.5017C151.043 39.5017 151.816 38.6502 151.816 37.5519C151.816 36.4536 151.055 35.6021 150.032 35.6021C149.008 35.6021 148.235 36.4536 148.235 37.5519C148.235 38.6502 148.997 39.5017 150.032 39.5017ZM149.175 36.2068H150.163C150.757 36.2068 151.055 36.4536 151.055 36.9596C151.055 37.3915 150.793 37.7 150.389 37.7L151.126 38.8847H150.674L149.948 37.7H149.591V38.8847H149.163V36.2068H149.175ZM149.603 37.3545H150.103C150.424 37.3545 150.638 37.2804 150.638 36.9349C150.638 36.6264 150.377 36.54 150.103 36.54H149.603V37.3545Z" fill="#2D3338"/>
</g>
</svg>
