<svg width="125" height="80" viewBox="0 0 125 80" fill="none" xmlns="http://www.w3.org/2000/svg">
<g id="GooglePay">
<g id="GPay">
<path fill-rule="evenodd" clip-rule="evenodd" d="M59.5515 49.0309V39.6399H64.2914C66.2337 39.6399 67.8731 38.9744 69.2095 37.6619L69.5303 37.3292C71.9715 34.6117 71.8111 30.3784 69.2095 27.8643C67.9087 26.5333 66.1268 25.8123 64.2914 25.8493H56.6827V49.0309H59.5515ZM59.5519 36.7929V28.6959H64.3639C65.3975 28.6959 66.3777 29.1026 67.1084 29.8421C68.659 31.3949 68.6946 33.983 67.1976 35.5913C66.4669 36.3862 65.4332 36.8298 64.3639 36.7929H59.5519Z" fill="#3C4043"/>
<path fill-rule="evenodd" clip-rule="evenodd" d="M82.9125 34.4082C81.683 33.2436 80.008 32.652 77.8875 32.652C75.1612 32.652 73.112 33.6873 71.7577 35.7392L74.288 37.3845C75.2146 35.9795 76.4798 35.2771 78.0835 35.2771C79.0992 35.2771 80.0792 35.6653 80.8455 36.3677C81.5939 37.0332 82.0215 37.9945 82.0215 39.0113V39.6953C80.9167 39.0667 79.5269 38.734 77.8162 38.734C75.8205 38.734 74.2168 39.2146 73.0229 40.1944C71.829 41.1741 71.2231 42.4682 71.2231 44.1134C71.1875 45.6108 71.8112 47.0342 72.916 47.9955C74.0386 49.0307 75.4641 49.5484 77.1391 49.5484C79.117 49.5484 80.6851 48.6425 81.879 46.8309H82.0037V49.0307H84.7479V39.2516C84.7479 37.1996 84.142 35.5728 82.9125 34.4082ZM75.126 46.11C74.5379 45.6663 74.1815 44.9454 74.1815 44.169C74.1815 43.3001 74.5735 42.5792 75.3399 42.0061C76.1241 41.433 77.1043 41.1372 78.2627 41.1372C79.8667 41.1188 81.1142 41.4885 82.0053 42.2279C82.0053 43.485 81.5241 44.5757 80.5796 45.5C79.7241 46.3873 78.5657 46.8864 77.3538 46.8864C76.5518 46.9049 75.7676 46.6276 75.126 46.11Z" fill="#3C4043"/>
<path d="M90.9133 56L100.5 33.1696H97.3817L92.9447 44.5571H92.8913L88.3474 33.1696H85.229L91.5192 48.014L87.9554 56H90.9133Z" fill="#3C4043"/>
<path d="M49.6471 37.6065C49.6471 36.7007 49.5759 35.7949 49.4333 34.9076H37.3341V40.0282H44.2658C43.9807 41.6735 43.0541 43.1524 41.6998 44.0767V47.4042H45.8338C48.2572 45.0934 49.6471 41.6735 49.6471 37.6065Z" fill="#4285F4"/>
<path d="M37.3346 50.6209C40.7915 50.6209 43.7134 49.4377 45.8338 47.4042L41.6998 44.0767C40.5416 44.8901 39.0631 45.3524 37.3346 45.3524C33.9846 45.3524 31.1514 43.0046 30.1357 39.862H25.8769V43.3004C28.0509 47.7925 32.4878 50.6209 37.3346 50.6209Z" fill="#34A853"/>
<path d="M30.1357 39.862C29.601 38.2167 29.6015 36.4235 30.1362 34.7597V31.3398H25.8767C24.0411 35.0925 24.0411 39.5291 25.8767 43.2818L30.1357 39.862Z" fill="#FBBC04"/>
<path d="M37.3346 29.2693C39.17 29.2324 40.9341 29.9533 42.2527 31.2659L45.9234 27.4577C43.5891 25.2024 40.5242 23.9638 37.3346 24.0008C32.4878 24.0008 28.0507 26.8477 25.8767 31.3398L30.1357 34.7782C31.1514 31.6171 33.9846 29.2693 37.3346 29.2693Z" fill="#EA4335"/>
</g>
</g>
</svg>
