<svg width="82" height="27" viewBox="0 0 82 27" fill="none" xmlns="http://www.w3.org/2000/svg">
<g id="International">
<path id="visa-logo" fill-rule="evenodd" clip-rule="evenodd" d="M20.5009 26.7897H13.4043L8.0827 5.84392C7.83011 4.88041 7.29381 4.02862 6.50491 3.62715C4.53614 2.61826 2.36668 1.81534 0 1.41039V0.603973H11.432C13.0098 0.603973 14.1932 1.81534 14.3904 3.2222L17.1515 18.3311L24.2446 0.603973H31.144L20.5009 26.7897ZM35.0885 26.7897H28.3864L33.9052 0.603973H40.6073L35.0885 26.7897ZM49.2782 7.85818C49.4754 6.44782 50.6588 5.64141 52.0393 5.64141C54.2088 5.43893 56.572 5.84389 58.5442 6.84929L59.7276 1.21137C57.7553 0.404953 55.5859 0 53.6171 0C47.1122 0 42.3788 3.62712 42.3788 8.6611C42.3788 12.4907 45.7316 14.5015 48.0983 15.7129C50.6588 16.9207 51.6449 17.7272 51.4476 18.935C51.4476 20.7468 49.4754 21.5533 47.5066 21.5533C45.14 21.5533 42.7733 20.9493 40.6073 19.9404L39.4239 25.5818C41.7906 26.5872 44.3511 26.9922 46.7177 26.9922C54.0116 27.1912 58.5442 23.5675 58.5442 18.1286C58.5442 11.2793 49.2782 10.8779 49.2782 7.85818ZM82 26.7897L76.6784 0.603973H70.9624C69.7791 0.603973 68.5957 1.41039 68.2013 2.61826L58.347 26.7897H65.2464L66.6235 22.9636H75.1006L75.8895 26.7897H82ZM71.9485 7.65581L73.9173 17.5248H68.3985L71.9485 7.65581Z" fill="#1434CB"/>
</g>
</svg>
