<svg width="44" height="34" viewBox="0 0 44 34" fill="none" xmlns="http://www.w3.org/2000/svg">
<g id="International">
<path id="path3810" d="M27.9491 24.2002H16.0515V2.89642H27.9491V24.2002Z" fill="#FF5F00"/>
<path id="path3814" d="M16.8064 13.5487C16.8064 9.22716 18.8371 5.37763 21.9996 2.89685C19.687 1.08278 16.7683 1.90735e-05 13.5964 1.90735e-05C6.08712 1.90735e-05 0 6.06588 0 13.5487C0 21.0316 6.08712 27.0974 13.5964 27.0974C16.7683 27.0974 19.687 26.0147 21.9996 24.2006C18.8371 21.7198 16.8064 17.8703 16.8064 13.5487Z" fill="#EB001B"/>
<path id="path3822" d="M43.9999 13.5487C43.9999 21.0316 37.9128 27.0974 30.4036 27.0974C27.2316 27.0974 24.313 26.0147 21.9995 24.2006C25.1628 21.7198 27.1936 17.8703 27.1936 13.5487C27.1936 9.22716 25.1628 5.37763 21.9995 2.89685C24.313 1.08278 27.2316 1.90735e-05 30.4036 1.90735e-05C37.9128 1.90735e-05 43.9999 6.06588 43.9999 13.5487Z" fill="#F79E1B"/>
</g>
</svg>
