<svg width="127" height="26" viewBox="0 0 127 26" fill="none" xmlns="http://www.w3.org/2000/svg">
<g id="logo">
<path id="Vector" fill-rule="evenodd" clip-rule="evenodd" d="M0 0H61.2433L54.1039 25.622H0V0Z" fill="#E30613"/>
<path id="Vector_2" fill-rule="evenodd" clip-rule="evenodd" d="M127 0L119.773 25.622H54.1035L61.2429 0H127Z" fill="#312783"/>
<path id="Vector_3" d="M70.4283 12.1665C70.5582 11.4564 70.6128 10.7346 70.5911 10.013C70.5792 9.50735 70.4823 9.00729 70.3045 8.53377C70.1716 8.18257 69.957 7.86809 69.6784 7.6164C69.4368 7.39902 69.1502 7.2377 68.839 7.14396C68.5289 7.05048 68.2064 7.00485 67.8826 7.00865C67.2547 7.00631 66.6336 7.13928 66.0617 7.39853C65.434 7.69008 64.8704 8.10322 64.4035 8.61404C63.8223 9.2456 63.3377 9.95971 62.9656 10.7332C62.4795 11.7261 62.0953 12.7657 61.8188 13.8361C61.5202 14.8584 61.3296 15.9092 61.2501 16.9712C61.1854 17.7034 61.2681 18.4411 61.4932 19.1408C61.6579 19.6566 61.9947 20.1003 62.4472 20.3976C62.9175 20.6815 63.4601 20.8225 64.0091 20.8035C64.5351 20.815 65.0592 20.7374 65.5594 20.5742C66.1033 20.3882 66.6035 20.0932 67.0295 19.7073C67.5758 19.2064 68.0402 18.6229 68.4055 17.978C68.9123 17.0846 69.3302 16.1436 69.6531 15.1686H67.4675C67.3076 15.6612 67.084 16.1307 66.8024 16.5653C66.5746 16.9213 66.283 17.2323 65.9424 17.4827C65.6703 17.6821 65.344 17.7941 65.0067 17.8037C64.8157 17.8164 64.6245 17.7811 64.4507 17.701C64.2768 17.6209 64.1258 17.4985 64.0113 17.3451C63.7575 16.9447 63.6371 16.4742 63.6673 16.0011C63.6767 15.2685 63.7839 14.5404 63.9861 13.8361C64.1745 13.0978 64.4493 12.3842 64.8049 11.7101C65.0624 11.2009 65.4223 10.7504 65.8621 10.3868C66.2065 10.0978 66.6396 9.93589 67.0891 9.92816C67.3461 9.91532 67.6004 9.98613 67.8138 10.13C68.0267 10.3089 68.171 10.5561 68.2221 10.8295C68.3019 11.2695 68.3088 11.7197 68.2427 12.1619L70.4283 12.1665ZM70.6989 13.8361C70.4115 14.859 70.2369 15.9103 70.1783 16.9712C70.1262 17.7078 70.2302 18.4471 70.4834 19.1408C70.674 19.6631 71.0352 20.1059 71.5085 20.3976C72.0116 20.681 72.5826 20.8214 73.1598 20.8035C73.7998 20.8059 74.4325 20.6673 75.0128 20.3976C75.6495 20.0974 76.2178 19.6696 76.6825 19.1408C77.2604 18.4918 77.7388 17.7607 78.1021 16.9712C78.5693 15.9667 78.935 14.918 79.1937 13.8407C79.4601 12.8272 79.6139 11.7873 79.6524 10.74C79.6939 10.0177 79.5822 9.29472 79.3245 8.61863C79.1268 8.11179 78.7672 7.68446 78.3016 7.40312C77.8071 7.12913 77.2475 6.99439 76.6825 7.01324C76.0545 7.01089 75.4334 7.14387 74.8615 7.40312C74.2392 7.6958 73.6811 8.10893 73.2194 8.61863C72.6447 9.25035 72.1691 9.96562 71.809 10.74C71.3354 11.734 70.962 12.7727 70.6944 13.8407L70.6989 13.8361ZM72.88 13.8361C73.0597 13.0986 73.326 12.385 73.6735 11.7101C73.9264 11.2031 74.2799 10.7529 74.7124 10.3868C75.0571 10.097 75.4913 9.93499 75.9417 9.92816C76.1318 9.91768 76.3215 9.95402 76.4942 10.034C76.667 10.114 76.8175 10.2351 76.9324 10.3868C77.1907 10.7785 77.319 11.2415 77.2994 11.7101C77.2965 12.4287 77.1978 13.1437 77.0058 13.8361C76.8309 14.5789 76.5676 15.2981 76.2215 15.9782C75.9686 16.4931 75.6126 16.9505 75.1757 17.3221C74.8295 17.6141 74.3924 17.7763 73.9395 17.7808C73.747 17.7926 73.5545 17.7569 73.379 17.6769C73.2034 17.5969 73.0502 17.4751 72.9327 17.3221C72.6771 16.9219 72.5514 16.4526 72.5727 15.9782C72.5814 15.2538 72.6847 14.5337 72.88 13.8361ZM88.8238 20.3104H90.9521C91.2915 18.8381 91.6294 17.3733 91.9658 15.9163C92.3021 14.4592 92.6354 13.0067 92.9657 11.5588C93.14 10.8712 93.2309 10.1651 93.2363 9.45572C93.2493 8.98899 93.1608 8.52499 92.9771 8.09573C92.8491 7.78898 92.6266 7.53109 92.3419 7.35954C92.0719 7.20496 91.7654 7.12575 91.4543 7.1302C90.8414 7.14443 90.251 7.36411 89.7778 7.75401C89.1714 8.24414 88.658 8.83916 88.2619 9.51076C88.2803 9.08533 88.2315 8.65964 88.1174 8.24939C88.0322 7.93739 87.8547 7.65841 87.6083 7.44899C87.3293 7.24007 86.9863 7.13467 86.6382 7.15084C86.3235 7.155 86.0123 7.21801 85.7208 7.33661C85.41 7.46657 85.1165 7.6345 84.847 7.83657C84.5736 8.04159 84.3202 8.27196 84.0902 8.5246C83.8714 8.7688 83.675 9.03206 83.5031 9.31124H83.4801C83.633 8.69966 83.7859 8.08808 83.9388 7.47651H81.9137C81.3924 9.58339 80.8679 11.7033 80.3404 13.8361L78.7351 20.3104H80.8702C81.1577 19.1347 81.4443 17.962 81.7303 16.7923C82.0146 15.625 82.299 14.4668 82.5811 13.3087C82.6872 12.8602 82.8346 12.4226 83.0214 12.0014C83.1725 11.6724 83.3652 11.3641 83.5948 11.084C83.7748 10.864 83.9932 10.6783 84.2392 10.5359C84.4449 10.4216 84.676 10.3608 84.9112 10.3593C85.0579 10.3561 85.2031 10.3901 85.3332 10.4579C85.474 10.5406 85.5866 10.6636 85.6566 10.8111C85.7489 11.0222 85.795 11.2505 85.7919 11.4808C85.7896 11.84 85.7426 12.1974 85.652 12.5449C85.3462 13.8293 85.0366 15.1174 84.7232 16.4093C84.4097 17.7013 84.0978 19.0009 83.7874 20.3081H85.9157C86.1955 19.1324 86.4738 17.9597 86.7505 16.7901C87.0257 15.6227 87.3032 14.4645 87.5762 13.3064C87.6793 12.8567 87.826 12.4181 88.0142 11.9968C88.1609 11.6684 88.349 11.3602 88.5738 11.0795C88.751 10.8596 88.9681 10.6752 89.2137 10.5359C89.4118 10.4216 89.6362 10.3607 89.865 10.3593C90.0176 10.3559 90.1688 10.3897 90.3053 10.4579C90.4482 10.5401 90.5632 10.6631 90.6356 10.8111C90.7337 11.0205 90.7824 11.2496 90.7778 11.4808C90.7807 11.8398 90.736 12.1977 90.6447 12.5449C90.3466 13.8293 90.0469 15.1174 89.7457 16.4093L88.8284 20.3081L88.8238 20.3104ZM95.9081 13.9095C96.0276 13.3581 96.2028 12.8202 96.431 12.3041C96.6113 11.8945 96.8424 11.5092 97.1191 11.1574C97.3369 10.8827 97.6026 10.6496 97.9034 10.4694C98.1454 10.3239 98.4215 10.2448 98.7038 10.2401C98.959 10.2355 99.2083 10.3162 99.4125 10.4694C99.6322 10.6496 99.7967 10.8881 99.8872 11.1574C100.015 11.5259 100.077 11.9141 100.071 12.3041C100.062 12.8445 99.9977 13.3825 99.878 13.9095C99.7579 14.46 99.5851 14.9976 99.362 15.5149C99.1845 15.9338 98.9532 16.3277 98.674 16.6869C98.4555 16.9683 98.1883 17.2083 97.8851 17.3955C97.6365 17.5432 97.3532 17.6223 97.064 17.6249C96.81 17.6311 96.5615 17.5501 96.3599 17.3955C96.1379 17.2085 95.9726 16.963 95.8829 16.6869C95.762 16.3083 95.7046 15.9123 95.7132 15.5149C95.7207 14.974 95.7884 14.4355 95.915 13.9095H95.9081ZM91.2915 25.1954H93.4404C93.6698 24.1336 93.9197 23.0694 94.1583 22.0122C94.3968 20.9549 94.6307 19.9022 94.8692 18.8518H94.8899C94.93 19.2122 95.044 19.5604 95.2247 19.8747C95.3879 20.1618 95.6256 20.3995 95.9127 20.5627C96.2311 20.7286 96.5858 20.8122 96.9448 20.8058C97.4959 20.791 98.031 20.6174 98.4859 20.3059C99.05 19.9215 99.5422 19.4409 99.9399 18.8862C100.442 18.2072 100.858 17.4694 101.181 16.6891C101.571 15.7718 101.87 14.8186 102.075 13.843C102.298 12.8794 102.415 11.8942 102.424 10.9052C102.436 10.1952 102.322 9.48873 102.089 8.81815C101.917 8.32314 101.604 7.88886 101.19 7.56824C100.792 7.28721 100.314 7.14166 99.8276 7.15314C99.5331 7.14843 99.2405 7.1998 98.9652 7.3045C98.6228 7.44861 98.3114 7.65728 98.0479 7.91914C97.6487 8.30752 97.292 8.73728 96.9837 9.20115H96.9631L97.3484 7.48339H95.3256C94.6651 10.3761 94 13.2911 93.3303 16.2282L91.2846 25.1977L91.2915 25.1954ZM101.827 20.3104H103.956C104.153 19.3747 104.352 18.4367 104.55 17.5079C104.747 16.5791 104.944 15.6502 105.139 14.7237C105.285 13.9899 105.516 13.2757 105.827 12.5954C106.053 12.0813 106.388 11.6233 106.811 11.2538C107.173 10.956 107.627 10.7937 108.095 10.7951C108.286 10.7963 108.474 10.8344 108.65 10.9075C108.831 10.976 109.004 11.0628 109.166 11.1666L109.974 7.26781C109.857 7.21936 109.734 7.18696 109.609 7.17148C109.485 7.15794 109.36 7.15105 109.235 7.15084C108.952 7.14816 108.672 7.20439 108.412 7.31597C108.134 7.44026 107.88 7.61262 107.662 7.82511C107.389 8.09442 107.14 8.38762 106.919 8.70119C106.662 9.05437 106.391 9.47407 106.095 9.95798H106.075C106.249 9.13006 106.423 8.30672 106.6 7.48109H104.58C104.121 9.5895 103.666 11.7086 103.215 13.8384C102.764 15.9682 102.301 18.1256 101.827 20.3104ZM114.657 15.0608C114.582 15.4612 114.46 15.8514 114.294 16.2236C114.151 16.545 113.97 16.8477 113.753 17.1249C113.567 17.3649 113.349 17.5793 113.106 17.7625C112.897 17.9231 112.666 18.0515 112.418 18.1432C112.204 18.2245 111.976 18.2672 111.746 18.2693C111.509 18.277 111.276 18.2006 111.088 18.0537C110.906 17.8964 110.785 17.6808 110.744 17.4437C110.688 17.1155 110.698 16.7794 110.774 16.4552C110.832 16.1354 110.938 15.8262 111.088 15.5379C111.2 15.3233 111.365 15.141 111.568 15.0081C111.772 14.8863 111.999 14.8082 112.235 14.7787L113.503 14.5632C113.729 14.5292 113.952 14.4755 114.168 14.4026C114.418 14.3128 114.651 14.1809 114.856 14.0127C114.787 14.3659 114.719 14.7168 114.648 15.0677L114.657 15.0608ZM112.01 11.357C112.133 10.9988 112.286 10.652 112.469 10.3203C112.587 10.1044 112.742 9.9111 112.928 9.74928C113.076 9.63514 113.249 9.55667 113.432 9.51994C113.631 9.48381 113.833 9.46768 114.035 9.47178C114.356 9.45648 114.676 9.51371 114.971 9.63919C115.073 9.68748 115.164 9.75773 115.236 9.84493C115.308 9.93213 115.36 10.0342 115.388 10.1437C115.455 10.4211 115.455 10.7104 115.388 10.9877C115.345 11.2555 115.268 11.5167 115.159 11.7652C115.084 11.9273 114.961 12.0631 114.808 12.1551C114.641 12.243 114.458 12.2968 114.269 12.3133C113.503 12.4188 112.735 12.522 111.976 12.6229C111.703 12.6564 111.433 12.7148 111.171 12.7972C110.559 12.9977 110.021 13.3753 109.625 13.882C109.365 14.2182 109.152 14.5877 108.99 14.9806C108.774 15.4978 108.611 16.0357 108.504 16.5859C108.361 17.22 108.298 17.8696 108.318 18.5193C108.324 18.9745 108.434 19.4224 108.639 19.8288C108.809 20.1457 109.074 20.4021 109.396 20.5627C109.744 20.7246 110.126 20.8032 110.51 20.7921C110.778 20.7904 111.045 20.7612 111.306 20.7049C111.611 20.6422 111.907 20.5437 112.189 20.4114C112.513 20.2567 112.816 20.0625 113.093 19.8334C113.406 19.5659 113.682 19.2573 113.914 18.916C113.879 19.1454 113.847 19.3747 113.827 19.6041C113.806 19.8334 113.797 20.0628 113.785 20.2921H115.925C115.909 19.9148 115.921 19.5369 115.962 19.1614C116.005 18.7326 116.081 18.2441 116.191 17.6684C116.399 16.5982 116.607 15.5279 116.815 14.4577C117.023 13.3874 117.225 12.3385 117.423 11.3111C117.515 10.8628 117.574 10.4082 117.599 9.9511C117.623 9.55394 117.59 9.15541 117.501 8.7677C117.426 8.41165 117.258 8.08179 117.014 7.81154C116.77 7.54129 116.459 7.34026 116.113 7.22882C115.634 7.06657 115.13 6.98896 114.625 6.99948C114.278 6.99541 113.932 7.02227 113.59 7.07975C113.231 7.13708 112.881 7.2468 112.554 7.40541C112.187 7.58777 111.854 7.83305 111.572 8.13013C111.22 8.50839 110.926 8.93746 110.701 9.40297C110.393 10.0275 110.151 10.6823 109.978 11.357H112.01Z" fill="white"/>
<path id="Vector_4" d="M25.9752 6.22436C27.1723 6.22436 28.3718 6.22436 29.5736 6.22436C29.7426 6.22158 29.9105 6.25359 30.0666 6.31839C30.2252 6.38671 30.3583 6.50301 30.4473 6.65093C30.5555 6.85544 30.6077 7.08487 30.5987 7.31602C30.5881 7.68043 30.524 8.0413 30.4084 8.38705C30.3006 8.74934 30.1513 9.09795 29.9634 9.42596C29.8208 9.67955 29.6424 9.91127 29.4337 10.114C29.273 10.2715 29.0859 10.3996 28.8809 10.4924C28.7199 10.5672 28.5448 10.6071 28.3672 10.6094H24.6198L25.9752 6.21289V6.22436ZM22.5534 8.16459H0V10.2814H21.8998L21.5351 11.4671L0 11.4442V13.5725H20.8815L20.5169 14.7467H0V16.8635H19.8632L19.4275 18.2739H0V20.3885H21.6039L23.7185 13.9509C24.8468 13.9509 25.9752 13.9509 27.1058 13.9509C27.3037 13.944 27.4997 13.9916 27.6723 14.0885C27.8396 14.1986 27.9573 14.3698 28.0003 14.5655C28.0673 14.8747 28.0751 15.1937 28.0232 15.5058C27.9479 16.0193 27.8298 16.5256 27.67 17.0195C27.5301 17.4781 27.4109 17.8703 27.3122 18.2074C27.2136 18.5446 27.1379 18.8404 27.0829 19.0904C27.0276 19.3171 26.9855 19.5468 26.9568 19.7784C26.9288 19.9805 26.9166 20.1845 26.9201 20.3885H30.0231C29.968 20.1099 29.9564 19.8244 29.9887 19.5422C30.0221 19.1831 30.0764 18.8262 30.1515 18.4735C30.2295 18.1019 30.3166 17.7442 30.4084 17.407C30.5001 17.0699 30.5758 16.8016 30.6377 16.5791C30.7478 16.2282 30.851 15.859 30.9542 15.4599C31.0574 15.0609 31.1331 14.671 31.195 14.2811C31.2561 13.9189 31.2868 13.5522 31.2867 13.1849C31.2909 12.8958 31.2371 12.6088 31.1285 12.3409C31.0875 12.2326 31.0225 12.135 30.9382 12.0555C30.854 11.9761 30.7528 11.9168 30.6423 11.8822L30.656 11.834C31.3689 11.4655 31.9777 10.9237 32.4266 10.2585C32.9632 9.4498 33.3702 8.56225 33.6329 7.62793C33.7515 7.24251 33.8472 6.85041 33.9196 6.4537C33.9958 6.03772 34.0304 5.61517 34.0228 5.19232C34.0201 4.79896 33.9423 4.40973 33.7934 4.04562C33.647 3.70102 33.3948 3.4119 33.0733 3.21999C32.6604 2.98824 32.191 2.87625 31.7179 2.89662C29.1951 2.89662 26.6724 2.89662 24.1703 2.89662L22.5534 8.16459ZM39.1921 16.4553C38.8896 16.9663 38.4785 17.4047 37.9881 17.7396C37.5574 18.024 37.0525 18.1755 36.5364 18.1753C36.1642 18.1902 35.7983 18.0768 35.4997 17.8543C35.2452 17.6496 35.0569 17.3744 34.9585 17.063C34.8514 16.73 34.804 16.3806 34.8186 16.031C34.8301 15.6835 34.8864 15.3389 34.986 15.0058L34.9998 14.9554H42.5382C42.5772 14.8269 42.6162 14.6962 42.6575 14.5655C43.1544 12.9097 43.3952 11.5015 43.3799 10.341C43.3646 9.18057 43.0787 8.29531 42.5222 7.68526C41.9626 7.07521 41.1255 6.7679 39.9994 6.7679C39.2362 6.7647 38.4789 6.90231 37.7656 7.17383C37.023 7.46304 36.3415 7.88939 35.7566 8.43062C35.0736 9.06842 34.4934 9.80799 34.0365 10.6231C33.468 11.6319 33.0163 12.7022 32.6903 13.8133C32.352 14.8475 32.15 15.9215 32.0894 17.008C32.0374 17.7613 32.1688 18.516 32.4724 19.2074C32.7337 19.755 33.1704 20.1997 33.7132 20.471C34.3378 20.7594 35.0207 20.8991 35.7084 20.8793C36.4959 20.8819 37.2759 20.7259 38.0018 20.4206C38.7877 20.0835 39.5005 19.5966 40.1003 18.9872C40.8324 18.2357 41.4505 17.3812 41.935 16.4507L39.1921 16.4553ZM35.7772 12.4097C35.7836 12.394 35.789 12.3779 35.7933 12.3615C35.8446 12.2153 35.9075 12.0734 35.9813 11.9373C36.1133 11.6806 36.2612 11.4325 36.424 11.1942C36.6265 10.9019 36.8569 10.63 37.112 10.3823C37.381 10.1151 37.6906 9.89218 38.0294 9.72181C38.3731 9.54121 38.7556 9.44677 39.144 9.4466C39.4657 9.43049 39.785 9.51031 40.0613 9.67594C40.2816 9.82228 40.4577 10.0261 40.5705 10.2654C40.6861 10.503 40.7591 10.7592 40.786 11.0222C40.8122 11.2753 40.8122 11.5305 40.786 11.7836C40.7715 11.9785 40.7369 12.1714 40.6828 12.3592C40.6765 12.3749 40.6711 12.391 40.6668 12.4074L35.7772 12.4097ZM46.4737 13.8775C46.6406 13.3038 46.8713 12.7507 47.1617 12.2285C47.4025 11.7955 47.7003 11.3967 48.047 11.0428C48.3299 10.7451 48.6639 10.5004 49.0332 10.3204C49.3442 10.1698 49.6852 10.0914 50.0308 10.0911C50.3318 10.084 50.6278 10.1688 50.8794 10.3342C51.1316 10.5118 51.3236 10.7623 51.4298 11.052C51.5676 11.4313 51.6262 11.8349 51.6018 12.2377C51.5735 12.7978 51.4733 13.352 51.3036 13.8867C51.137 14.4604 50.9062 15.0136 50.6156 15.5356C50.375 15.9715 50.0773 16.3733 49.7304 16.7305C49.446 17.024 49.1141 17.2675 48.7488 17.4506C48.4381 17.6 48.0981 17.6784 47.7534 17.68C47.4518 17.6901 47.1541 17.6102 46.898 17.4506C46.6422 17.274 46.4475 17.0224 46.3407 16.7305C46.2049 16.3475 46.1472 15.9412 46.171 15.5356C46.1996 14.9753 46.3006 14.4211 46.4714 13.8867L46.4737 13.8775ZM49.3565 20.3885H51.8518C52.7401 17.4147 53.6253 14.4455 54.5075 11.4809C55.3897 8.51624 56.2696 5.56156 57.1472 2.61682H54.5832C54.2774 3.65803 53.9663 4.69848 53.6498 5.73816C53.3402 6.77707 53.0283 7.82057 52.7164 8.86178H52.6866C52.6503 8.49334 52.5234 8.1396 52.3173 7.83204C52.1142 7.5332 51.8336 7.29533 51.5055 7.14402C51.1157 6.9723 50.6928 6.88852 50.267 6.89862C49.6094 6.91214 48.9652 7.08697 48.391 7.40776C47.7147 7.77935 47.1041 8.25975 46.5838 8.82968C45.9635 9.50188 45.4289 10.2483 44.9922 11.052C44.4846 11.9715 44.0785 12.9435 43.7812 13.9509C43.4722 14.9312 43.2836 15.9454 43.2194 16.9713C43.1641 17.7052 43.2593 18.4427 43.4992 19.1386C43.6831 19.6674 44.031 20.1238 44.4922 20.4412C44.9649 20.7403 45.5155 20.8927 46.0747 20.8793C46.4794 20.881 46.8821 20.8222 47.2695 20.705C47.7188 20.5584 48.1399 20.3366 48.5148 20.049C49.0043 19.6712 49.4422 19.2309 49.8175 18.7395H49.8473C49.6822 19.2899 49.5194 19.8404 49.3542 20.3885H49.3565Z" fill="white"/>
</g>
</svg>
