<svg width="40" height="41" viewBox="0 0 40 41" fill="none" xmlns="http://www.w3.org/2000/svg">
<g id=" shopping-cart">
<path id="Icon" fill-rule="evenodd" clip-rule="evenodd" d="M27.303 23.8333H14.6063L11.878 13.8333H32.303L27.303 23.8333ZM35.138 12.08C34.5263 11.09 33.4663 10.5 32.303 10.5H10.9697L9.94134 6.72833C9.74301 6.00333 9.08467 5.5 8.33301 5.5H4.99967C4.07801 5.5 3.33301 6.24667 3.33301 7.16667C3.33301 8.08667 4.07801 8.83333 4.99967 8.83333H7.05967L11.7247 25.9383C11.923 26.6633 12.5813 27.1667 13.333 27.1667H28.333C28.9647 27.1667 29.5413 26.81 29.8247 26.245L35.2847 15.3233C35.8063 14.2817 35.7497 13.07 35.138 12.08ZM12.5 30.5C11.12 30.5 9.99999 31.6183 9.99999 33C9.99999 34.3817 11.12 35.5 12.5 35.5C13.88 35.5 15 34.3817 15 33C15 31.6183 13.88 30.5 12.5 30.5ZM26.6667 33C26.6667 31.6183 27.7867 30.5 29.1667 30.5C30.5467 30.5 31.6667 31.6183 31.6667 33C31.6667 34.3817 30.5467 35.5 29.1667 35.5C27.7867 35.5 26.6667 34.3817 26.6667 33Z" fill="#3B3CF7"/>
</g>
</svg>
