<svg width="40" height="41" viewBox="0 0 40 41" fill="none" xmlns="http://www.w3.org/2000/svg">
<g id=" wifi">
<path id="Icon" fill-rule="evenodd" clip-rule="evenodd" d="M19.9993 7.16702C26.0793 7.16702 31.8343 9.49202 36.2076 13.7154C36.8693 14.3537 36.8876 15.4104 36.2493 16.072C35.9226 16.4104 35.486 16.5804 35.051 16.5804C34.6343 16.5804 34.216 16.4254 33.8926 16.112C30.1426 12.4937 25.2093 10.5004 19.9993 10.5004C14.7893 10.5004 9.85596 12.4937 6.10596 16.112C5.44763 16.7537 4.39096 16.7354 3.7493 16.072C3.11263 15.4104 3.1293 14.3537 3.79263 13.7154C8.16596 9.49202 13.921 7.16702 19.9993 7.16702ZM20 15.5C15.9533 15.5 12.02 17.1683 9.20831 20.08C8.57164 20.7433 8.58831 21.7983 9.25164 22.4367C9.91164 23.0767 10.97 23.0583 11.6083 22.3967C13.7933 20.1317 16.8516 18.8333 20 18.8333C23.1483 18.8333 26.2066 20.1317 28.3916 22.3967C28.7183 22.735 29.155 22.905 29.5916 22.905C30.0083 22.905 30.4266 22.75 30.7483 22.4367C31.4116 21.7983 31.4283 20.7433 30.7916 20.08C27.98 17.1683 24.0466 15.5 20 15.5ZM14.2116 26.1717C15.7733 24.665 17.8283 23.8333 20 23.8333C22.1716 23.8333 24.2266 24.665 25.7883 26.1717C26.45 26.8117 26.4683 27.8667 25.83 28.5283C25.5033 28.8683 25.0666 29.0383 24.63 29.0383C24.2133 29.0383 23.795 28.8817 23.4733 28.57C21.5983 26.76 18.4016 26.76 16.5266 28.57C15.8683 29.21 14.8116 29.1917 14.17 28.5283C13.5316 27.8667 13.55 26.8117 14.2116 26.1717ZM18.3333 32.1667C18.3333 31.2467 19.0783 30.5 20 30.5C20.9216 30.5 21.6666 31.2467 21.6666 32.1667C21.6666 33.0867 20.9216 33.8333 20 33.8333C19.0783 33.8333 18.3333 33.0867 18.3333 32.1667Z" fill="#3B3CF7"/>
</g>
</svg>
